PathFileType	4	(x/y/z)	S09_P20_T28
DataRate	CameraRate	NumFrames	NumMarkers	Units	OrigDataRate	OrigDataStartFrame	OrigNumFrames
240	240	5	51	mm	240	311	414
Frame#	Time	Sternum			R.Acromium			L.Acromium			Top.Head			R.ASIS			L.ASIS			R.PSIS			L.PSIS			R.Great.Tro			L.Great.Tro			R.Iliac.Crest			L.Iliac.Crest			V.Sacral			R.Thigh.Upper.Post			R.Thigh.Lower.Ant			R.Thigh.Lower.Post			R.Thigh.Upper.Ant			R.Knee.Lat			R.Knee.Med			R.Shank.Upper.Post			R.Shank.Lower.Ant			R.Shank.Lower.Post			R.Shank.Upper.Ant			R.Ankle.Lat			R.Ankle.Med			R.Heel.Upper			R.Heel.Med			R.Heel.Lat			R.Toe.Lat			R.Toe.Med			R.Toe.Tip			L.Thigh.Upper.Post			L.Thigh.Lower.Ant			L.Thigh.Lower.Post			L.Thigh.Upper.Ant			L.Knee.Lat			L.Knee.Med			L.Shank.Upper.Post			L.Shank.Lower.Ant			L.Shank.Lower.Post			L.Shank.Upper.Ant			L.Ankle.Lat			L.Ankle.Med			L.Heel.Upper			L.Heel.Med			L.Heel.Lat			L.Toe.Lat			L.Toe.Med			L.Toe.Tip			Cervical.Spine			Back			
		X1	Y1	Z1	X2	Y2	Z2	X3	Y3	Z3	X4	Y4	Z4	X5	Y5	Z5	X6	Y6	Z6	X7	Y7	Z7	X8	Y8	Z8	X9	Y9	Z9	X10	Y10	Z10	X11	Y11	Z11	X12	Y12	Z12	X13	Y13	Z13	X14	Y14	Z14	X15	Y15	Z15	X16	Y16	Z16	X17	Y17	Z17	X18	Y18	Z18	X19	Y19	Z19	X20	Y20	Z20	X21	Y21	Z21	X22	Y22	Z22	X23	Y23	Z23	X24	Y24	Z24	X25	Y25	Z25	X26	Y26	Z26	X27	Y27	Z27	X28	Y28	Z28	X29	Y29	Z29	X30	Y30	Z30	X31	Y31	Z31	X32	Y32	Z32	X33	Y33	Z33	X34	Y34	Z34	X35	Y35	Z35	X36	Y36	Z36	X37	Y37	Z37	X38	Y38	Z38	X39	Y39	Z39	X40	Y40	Z40	X41	Y41	Z41	X42	Y42	Z42	X43	Y43	Z43	X44	Y44	Z44	X45	Y45	Z45	X46	Y46	Z46	X47	Y47	Z47	X48	Y48	Z48	X49	Y49	Z49	X50	Y50	Z50	X51	Y51	Z51	

311	1.2917	269.33	1194.8	322.49	135.58	1440.1	458.56	144.97	1450.6	158.5	158.73	1752.8	314.84	201.43	1025.2	421.57	216.16	1033	176.53	-13.462	1051.3	332.48	-1.2102	1058.3	244.13	117.13	940.16	489.87	144.78	944.22	104.04	112.33	1103.8	460.7	116.78	1130.3	139.15	-26.806	1019.6	283.11	184.4	700.78	484.02	282.19	618.6	463.85	203.52	609.57	464.75	256.8	704.5	482.18	269.17	531.4	456.7	280.19	519.38	333.7	115.44	432.95	459.85	126.95	342.82	445.13	63.412	378.09	446.6	172.26	399.82	459.49	-44.673	227.44	418.71	-4.1724	215.29	337.65	-94.231	258.66	358.49	-104.46	230.22	326.48	-119.98	234.61	389.8	-29.461	109.89	453.93	24.919	84.885	358.94	61.287	62.215	408.43	92.512	683.43	155.29	178.97	591.56	159.32	111.12	595.37	175.54	161.79	675.98	134.21	170.11	511.06	171.71	185.39	528.42	303.29	126.04	375.89	164.25	191.71	288.56	182.29	128.26	299.26	173.76	188.74	366.02	173.83	155.59	102.37	205.47	170.39	99.489	298.18	85.514	70.272	258.12	98.189	46.907	291.52	87.169	41.195	230.96	260.54	42.608	177.58	296.9	46.329	287.4	347.75	63.339	227.98	54.166	1496.7	318.95	7.638	1232.4	293.37
312	1.2958	274.3	1195.7	322.68	140.16	1440.8	458.52	150.2	1451.5	158.46	164.08	1753.4	314.89	206.18	1026.3	421.28	221.14	1033.3	176.32	-8.5881	1052.3	332.02	3.7959	1059.1	243.68	122.06	941.43	489.73	149.32	944.41	104.07	117.06	1104.9	460.23	122.04	1130.7	138.66	-21.899	1020.5	282.72	191.57	702.44	484.24	290.02	621.06	463.73	211.38	611.35	465.11	264.02	706.74	482.03	277.67	533.65	456.7	288.54	521.62	333.77	125.07	432.57	460.11	138.18	342.65	445.57	74.051	376.77	446.96	182.47	400.45	459.82	-31.611	224.64	419.41	9.5145	212.57	338.5	-81.8	253.82	358.55	-91.161	224.67	326.89	-107.02	229.52	390.1	-13.373	108.14	456.17	41.925	83.291	361.62	78.684	62.219	411.55	95.494	684.13	155.25	181.34	591.66	159.3	113.5	595.92	175.43	164.74	676.23	134.23	171.86	511.15	171.67	187.15	528.41	303.27	127.17	376.05	164.22	192.55	288.53	182.31	129.15	299.44	173.78	189.83	366	173.81	155.8	102.5	205.57	170.54	99.531	298.28	85.582	70.407	258.22	98.208	46.977	291.57	87.22	41.391	231.01	260.6	42.598	177.62	297	46.131	287.45	347.86	63.089	228.03	59.111	1497.3	318.73	12.68	1233.2	292.75
313	1.3	279.25	1196.5	322.85	144.74	1441.4	458.48	155.43	1452.3	158.43	169.42	1754	314.96	210.93	1027.4	421	226.12	1033.5	176.12	-3.7219	1053.2	331.59	8.7945	1059.9	243.25	127.01	942.68	489.62	153.89	944.57	104.11	121.77	1106	459.77	127.29	1131	138.17	-16.993	1021.4	282.36	198.65	704.05	484.44	297.71	623.46	463.56	219.12	613.09	465.42	271.15	708.9	481.84	286.01	535.86	456.66	296.74	523.81	333.83	134.61	432.1	460.31	149.38	342.41	446.06	84.66	375.35	447.25	192.58	401.05	460.17	-18.382	221.61	420.15	23.375	209.65	339.39	-69.174	248.72	358.68	-77.643	218.87	327.39	-93.832	224.16	390.47	2.9084	106.25	458.43	59.133	81.622	364.3	96.258	62.183	414.66	98.483	684.8	155.21	183.72	591.75	159.29	115.9	596.45	175.33	167.69	676.45	134.26	173.61	511.23	171.65	188.89	528.4	303.26	128.31	376.2	164.2	193.39	288.5	182.35	130.04	299.6	173.82	190.91	365.97	173.79	156.02	102.64	205.68	170.69	99.567	298.39	85.656	70.545	258.32	98.227	47.046	291.62	87.273	41.589	231.07	260.66	42.589	177.66	297.09	45.929	287.5	347.98	62.838	228.07	64.056	1497.9	318.52	17.73	1233.9	292.13
314	1.3042	284.19	1197.4	323.01	149.33	1442	458.44	160.66	1453.1	158.4	174.75	1754.6	315.04	215.68	1028.5	420.73	231.08	1033.7	175.93	1.1362	1054.1	331.19	13.784	1060.6	242.84	132	943.91	489.53	158.47	944.69	104.15	126.46	1107.1	459.32	132.52	1131.2	137.69	-12.088	1022.1	282.03	205.63	705.62	484.61	305.27	625.78	463.37	226.74	614.78	465.7	278.17	710.99	481.64	294.19	538.02	456.6	304.79	525.94	333.88	144.06	431.54	460.44	160.53	342.12	446.58	95.239	373.81	447.5	202.6	401.6	460.52	-4.9814	218.36	420.92	37.408	206.56	340.34	-56.348	243.37	358.89	-63.897	212.85	327.97	-80.422	218.55	390.92	19.381	104.23	460.7	76.533	79.897	366.98	114	62.118	417.72	101.48	685.46	155.17	186.1	591.81	159.3	118.31	596.97	175.23	170.65	676.66	134.3	175.36	511.29	171.63	190.62	528.37	303.27	129.45	376.34	164.2	194.24	288.46	182.39	130.95	299.76	173.86	192.01	365.94	173.78	156.24	102.77	205.8	170.83	99.597	298.51	85.737	70.685	258.42	98.247	47.115	291.67	87.329	41.789	231.12	260.72	42.581	177.7	297.19	45.723	287.55	348.09	62.585	228.12	69.002	1498.4	318.32	22.787	1234.6	291.53
315	1.3083	289.12	1198.2	323.15	153.94	1442.6	458.39	165.87	1453.9	158.38	180.07	1755.2	315.14	220.43	1029.5	420.47	236.04	1033.8	175.75	5.9864	1054.9	330.81	18.762	1061.2	242.47	137.02	945.1	489.47	163.08	944.77	104.2	131.15	1108.2	458.89	137.75	1131.4	137.22	-7.1826	1022.9	281.74	212.51	707.13	484.76	312.7	628.02	463.14	234.23	616.41	465.92	285.1	712.99	481.41	302.21	540.11	456.51	312.69	527.99	333.94	153.43	430.89	460.51	171.65	341.79	447.15	105.79	372.17	447.69	212.52	402.11	460.89	8.5976	214.91	421.74	51.612	203.32	341.34	-43.316	237.79	359.17	-49.922	206.63	328.64	-66.779	212.72	391.45	36.041	102.1	462.97	94.114	78.137	369.64	131.89	62.035	420.74	104.48	686.08	155.14	188.49	591.86	159.32	120.74	597.47	175.15	173.62	676.84	134.35	177.13	511.33	171.63	192.34	528.35	303.3	130.61	376.47	164.21	195.1	288.42	182.45	131.88	299.92	173.91	193.11	365.89	173.79	156.48	102.91	205.92	170.98	99.622	298.63	85.826	70.829	258.53	98.27	47.184	291.73	87.388	41.99	231.18	260.78	42.575	177.75	297.28	45.513	287.6	348.21	62.332	228.17	73.949	1499	318.12	27.853	1235.2	290.94
